<svg width="18" height="19" viewBox="0 0 18 19" fill="none" xmlns="http://www.w3.org/2000/svg">
<path d="M1.48849 2.38867H2.73636C3.5109 2.38867 4.12048 3.05563 4.05594 3.823L3.46069 10.9659C3.36029 12.1349 4.28542 13.1389 5.46157 13.1389H13.0994C14.1321 13.1389 15.0357 12.2927 15.1146 11.2671L15.5018 5.88843C15.5879 4.69794 14.6843 3.72976 13.4866 3.72976H4.22806" stroke="white" stroke-width="1.47531" stroke-miterlimit="10" stroke-linecap="round" stroke-linejoin="round"/>
<path d="M11.7081 16.7319C12.2032 16.7319 12.6046 16.3305 12.6046 15.8354C12.6046 15.3403 12.2032 14.939 11.7081 14.939C11.213 14.939 10.8116 15.3403 10.8116 15.8354C10.8116 16.3305 11.213 16.7319 11.7081 16.7319Z" stroke="white" stroke-width="1.47531" stroke-miterlimit="10" stroke-linecap="round" stroke-linejoin="round"/>
<path d="M5.97082 16.7319C6.46592 16.7319 6.86728 16.3305 6.86728 15.8354C6.86728 15.3403 6.46592 14.939 5.97082 14.939C5.47573 14.939 5.07437 15.3403 5.07437 15.8354C5.07437 16.3305 5.47573 16.7319 5.97082 16.7319Z" stroke="white" stroke-width="1.47531" stroke-miterlimit="10" stroke-linecap="round" stroke-linejoin="round"/>
<path d="M6.50864 6.69165H15.1146" stroke="white" stroke-width="1.47531" stroke-miterlimit="10" stroke-linecap="round" stroke-linejoin="round"/>
</svg>
